

TOOTH FAIRY TS XVID


Video Codec.......:TS XVID
Audio Codec.......:MP3 Theatre
Date......:17/12/09
Audio Bitrate.....:128 Runtime.......:1h 46mns
Subtitles.........:ENG Language..........:ENGLISH
Resolution...... 720 x 304 IMDb URL..........:http://www.imdb.com/title/tt0499549/


DETAILS:

Video
ID : 0
Format : MPEG-4 Visual
Format profile : Advanced Simple@L5
Format settings, BVOP : Yes
Format settings, QPel : No
Format settings, GMC : No warppoints
Format settings, Matrix : Default (MPEG)
Muxing mode : Packed bitstream
Codec ID : XVID
Codec ID/Hint : XviD
Duration : 2h 34mn
Bit rate : 1 754 Kbps
Width : 720 pixels
Height : 304 pixels
Display aspect ratio : 2.35
Frame rate : 25.000 fps
Resolution : 24 bits
Colorimetry : 4:2:0
Scan type : Progressive
Bits/(Pixel*Frame) : 0.321
Stream size : 1.89 GiB (93%)
Writing library : XviD 1.2.1 (UTC 2008-12-04)

Audio
ID : 1
Format : MPEG Audio
Format version : Version 1
Format profile : Layer 3
Codec ID : 55
Codec ID/Hint : MP3
Duration : 2h 34mn
Bit rate mode : Constant
Bit rate : 128 Kbps
Channel(s) : 2 channels
Sampling rate : 48.0 KHz
Resolution : 16 bits
Stream size : 141 MiB (7%)
Alignment : Split accross interleaves
Interleave, duration : 40 ms (1.00 video frame)
Interleave, preload duration : 500 ms

 
http://img218.imageshack.us/img218/9420/thetoothfairy1.png 
http://img341.imageshack.us/img341/8399/thetoothfairy2.png 
http://img52.imageshack.us/img52/3346/thetoothfairy3.png 
http://img218.imageshack.us/img218/6929/thetoothfairy4.png